<?xml version="1.0" standalone="no"?>
<!DOCTYPE svg PUBLIC "-//W3C//DTD SVG 20010904//EN"
 "http://www.w3.org/TR/2001/REC-SVG-20010904/DTD/svg10.dtd">
<svg version="1.0" xmlns="http://www.w3.org/2000/svg"
 width="500.000000pt" height="500.000000pt" viewBox="0 0 500.000000 500.000000"
 preserveAspectRatio="xMidYMid meet">
<metadata>
Created by potrace 1.11, written by Peter Selinger 2001-2013
</metadata>
<g transform="translate(0.000000,500.000000) scale(0.100000,-0.100000)"
fill="#000000" stroke="none">
<path d="M0 2500 l0 -2500 2500 0 2500 0 0 2500 0 2500 -2500 0 -2500 0 0
-2500z m2316 1468 c46 -92 139 -137 238 -116 52 11 117 63 140 112 l16 34 76
-19 c41 -11 99 -31 129 -44 l54 -24 -6 -49 c-19 -160 147 -279 296 -212 24 11
45 20 46 20 7 0 126 -162 141 -191 15 -29 14 -31 -15 -61 -90 -92 -75 -242 31
-314 25 -17 64 -34 86 -37 38 -7 39 -8 46 -53 8 -59 8 -119 0 -178 -7 -45 -8
-46 -46 -53 -22 -3 -61 -20 -86 -37 -107 -73 -121 -222 -30 -315 l32 -32 -19
-32 c-22 -39 -123 -175 -135 -182 -4 -3 -28 4 -51 15 -86 38 -184 17 -246 -53
-42 -47 -57 -98 -49 -162 l6 -52 -58 -22 c-80 -31 -193 -62 -203 -55 -5 3 -9
11 -9 18 0 22 -68 93 -106 111 -102 48 -255 -13 -280 -111 -7 -26 -5 -26 -99
-2 -22 5 -70 22 -107 36 l-66 26 5 53 c17 162 -151 285 -292 213 -22 -11 -42
-20 -46 -20 -9 0 -124 152 -144 190 -14 27 -13 29 19 63 113 120 41 324 -124
351 l-37 6 -5 64 c-3 35 -3 96 0 135 l5 71 37 6 c166 27 237 231 123 351 l-33
36 31 51 c17 28 52 76 77 106 25 30 47 57 48 59 2 2 23 -6 47 -18 145 -70 310
48 295 210 l-5 51 41 19 c30 13 171 59 213 68 1 1 10 -14 19 -31z m1147 -2419
c24 -38 -14 -100 -161 -261 -57 -62 -113 -131 -125 -152 -49 -87 -72 -52 -92
142 -4 34 -10 62 -15 62 -16 0 -182 -182 -192 -211 -8 -25 -15 -30 -37 -27
-26 3 -26 3 -25 88 0 47 3 143 7 215 7 138 16 160 62 153 30 -4 30 -40 0 -123
-26 -70 -39 -185 -23 -201 4 -4 57 44 117 107 79 82 113 125 121 152 13 44 31
54 66 39 31 -15 30 -33 -3 -73 -25 -30 -28 -41 -31 -127 -3 -60 0 -98 7 -105
8 -8 40 18 122 98 123 122 143 152 134 195 -4 16 -3 34 0 40 10 16 56 8 68
-11z m-2257 -30 c17 -19 19 -41 22 -220 l4 -199 -51 0 -51 0 0 95 0 96 -152
-3 -153 -3 -3 -92 -3 -93 -44 0 -45 0 0 198 c0 264 -23 242 249 242 199 0 209
-1 227 -21z m594 -1 c28 -31 27 -84 -2 -92 -49 -13 -68 -7 -68 19 l0 25 -155
0 -155 0 0 -145 0 -145 156 0 155 0 -3 53 -3 52 -67 3 -68 3 0 34 0 35 115 0
115 0 0 -104 c0 -157 10 -150 -238 -154 l-200 -3 -28 25 -29 24 0 175 c0 236
-21 217 246 217 201 0 209 -1 229 -22z m592 5 c14 -12 18 -31 18 -83 0 -68 -9
-89 -45 -108 -11 -6 -14 -12 -7 -12 6 0 21 -9 32 -20 17 -17 20 -33 20 -110
l0 -90 -45 0 -45 0 0 95 0 96 -152 -3 -153 -3 -3 -92 -3 -93 -44 0 -45 0 0
220 0 220 227 0 c197 0 229 -2 245 -17z m208 -9 c16 -41 13 -44 -40 -44 l-50
0 0 35 c0 34 1 35 40 35 34 0 42 -4 50 -26z m1465 -94 c3 -15 -1 -65 -9 -110
-15 -79 -13 -130 5 -130 12 0 98 117 115 157 8 18 14 48 14 67 0 54 58 88 80
47 25 -48 -67 -208 -200 -346 -52 -55 -113 -121 -134 -147 -39 -49 -62 -59
-72 -33 -8 20 30 78 89 136 36 36 42 47 31 55 -12 7 -12 20 -3 74 6 36 10 99
8 140 -2 97 -2 97 22 121 24 24 44 13 54 -31z m-347 14 c18 -8 32 -18 32 -21
0 -4 -11 -40 -26 -80 -32 -94 -31 -166 3 -171 15 -2 38 11 72 43 54 50 72 46
45 -10 -21 -45 -79 -93 -122 -101 -43 -8 -78 23 -87 78 l-7 39 -58 -55 c-66
-63 -101 -77 -130 -51 -27 24 -25 49 9 120 52 111 162 225 216 225 12 0 36 -7
53 -16z m-1108 -174 l0 -160 -28 0 c-16 0 -37 6 -48 14 -17 13 -19 29 -22 160
l-3 146 50 0 51 0 0 -160z"/>
<path d="M2375 3449 l-90 -29 -111 20 c-61 11 -114 20 -117 20 -10 0 -122
-143 -180 -230 -31 -47 -59 -98 -62 -115 -7 -37 -2 -45 139 -211 59 -71 113
-139 118 -150 8 -16 5 -36 -10 -77 -23 -59 -20 -89 13 -144 22 -36 83 -83 108
-83 33 0 190 89 244 138 50 45 52 49 38 69 -8 12 -57 56 -108 99 -50 42 -96
83 -100 91 -5 9 8 44 38 101 50 94 57 132 31 161 -10 10 -81 43 -159 72 l-142
54 102 9 c93 8 110 7 190 -15 l88 -25 0 -39 c-1 -22 -12 -102 -25 -177 -18
-102 -22 -140 -13 -149 6 -6 42 -17 79 -25 54 -12 79 -12 124 -3 104 21 103
16 64 216 -14 74 -24 144 -22 156 2 18 17 25 83 44 81 23 144 26 245 15 l55
-7 -142 -54 c-78 -29 -149 -62 -159 -72 -26 -29 -19 -67 31 -161 51 -95 51
-99 -5 -144 -101 -81 -170 -148 -170 -163 1 -39 229 -191 288 -191 33 0 91 53
118 108 26 52 26 52 9 100 -30 86 -31 83 36 168 34 43 90 111 124 149 68 77
85 104 85 133 0 38 -224 352 -250 352 -5 0 -57 -9 -115 -20 l-105 -21 -99 31
c-119 37 -151 36 -266 -1z"/>
<path d="M2425 2486 c-121 -50 -205 -95 -205 -110 0 -7 33 -36 73 -64 39 -28
83 -60 97 -71 21 -17 40 -21 123 -21 l98 0 67 50 c121 91 132 101 132 110 0
16 -268 141 -298 140 -4 -1 -43 -16 -87 -34z"/>
<path d="M820 1415 l0 -55 155 0 155 0 0 55 0 55 -155 0 -155 0 0 -55z"/>
<path d="M2010 1415 l0 -55 155 0 155 0 0 55 0 55 -155 0 -155 0 0 -55z"/>
<path d="M3605 1392 c-77 -47 -152 -222 -96 -222 52 0 166 149 159 207 -4 34
-24 39 -63 15z"/>
</g>
</svg>
